# xmcd
#
# Track frame offsets:
#	150
#	15687
#	33665
#	47143
#	61340
#	73038
#	90769
#	105246
#	118129
#	133461
#	148826
#	161637
#
# Disc length: 2318 seconds
# Revision: 0
# Processed by: cddbd v1.5.2PL0 Copyright (c) Steve Scherf et al.
# Submitted via: dBpowerAMP V12.0
#
DISCID=a9090c0c
DTITLE=Doyle Lawson and Quicksilver - Life Is A Story
DYEAR=2017
DGENRE=Country
TTITLE0=Kids These Days
TTITLE1=Little Girl
TTITLE2=Life of a Hard Workin' Man
TTITLE3=Life to My Days
TTITLE4=I See a Heartbreak Comin'
TTITLE5=Guitar Case
TTITLE6=What Am I Living For
TTITLE7=Bluegrass Blues
TTITLE8=Derailed
TTITLE9=Love Lives Again
TTITLE10=Cry Across Kansas
TTITLE11=Drivin' It Home
EXTD=
EXTT0=
EXTT1=
EXTT2=
EXTT3=
EXTT4=
EXTT5=
EXTT6=
EXTT7=
EXTT8=
EXTT9=
EXTT10=
EXTT11=
PLAYORDER=
